<mxfile host="app.diagrams.net" modified="2024-06-13T18:58:22.179Z" agent="Mozilla/5.0 (Windows NT 10.0; Win64; x64) AppleWebKit/537.36 (KHTML, like Gecko) Chrome/125.0.0.0 Safari/537.36" etag="LVOJmxMUzQeAFae-aXsA" version="24.3.1" type="device">
  <diagram name="Page-1" id="53ySDQYK-rouJDYQfKEl">
    <mxGraphModel dx="1816" dy="514" grid="1" gridSize="10" guides="1" tooltips="1" connect="1" arrows="1" fold="1" page="1" pageScale="1" pageWidth="827" pageHeight="1169" math="0" shadow="0">
      <root>
        <mxCell id="0" />
        <mxCell id="1" parent="0" />
        <mxCell id="ieKP5hc3uYDtcVBomjVJ-16" style="edgeStyle=orthogonalEdgeStyle;rounded=0;orthogonalLoop=1;jettySize=auto;html=1;exitX=0.5;exitY=1;exitDx=0;exitDy=0;entryX=0.5;entryY=0;entryDx=0;entryDy=0;" edge="1" parent="1" source="ieKP5hc3uYDtcVBomjVJ-3" target="ieKP5hc3uYDtcVBomjVJ-5">
          <mxGeometry relative="1" as="geometry" />
        </mxCell>
        <mxCell id="ieKP5hc3uYDtcVBomjVJ-3" value="Interactable" style="rounded=1;whiteSpace=wrap;html=1;fillColor=#dae8fc;strokeColor=#6c8ebf;" vertex="1" parent="1">
          <mxGeometry x="280" y="40" width="80" height="40" as="geometry" />
        </mxCell>
        <mxCell id="ieKP5hc3uYDtcVBomjVJ-14" style="edgeStyle=orthogonalEdgeStyle;rounded=0;orthogonalLoop=1;jettySize=auto;html=1;exitX=0.5;exitY=1;exitDx=0;exitDy=0;entryX=0.5;entryY=0;entryDx=0;entryDy=0;" edge="1" parent="1" source="ieKP5hc3uYDtcVBomjVJ-28" target="ieKP5hc3uYDtcVBomjVJ-6">
          <mxGeometry relative="1" as="geometry" />
        </mxCell>
        <mxCell id="ieKP5hc3uYDtcVBomjVJ-15" style="edgeStyle=orthogonalEdgeStyle;rounded=0;orthogonalLoop=1;jettySize=auto;html=1;exitX=0.5;exitY=1;exitDx=0;exitDy=0;entryX=0.5;entryY=0;entryDx=0;entryDy=0;" edge="1" parent="1" source="ieKP5hc3uYDtcVBomjVJ-28" target="ieKP5hc3uYDtcVBomjVJ-7">
          <mxGeometry relative="1" as="geometry" />
        </mxCell>
        <mxCell id="ieKP5hc3uYDtcVBomjVJ-29" style="edgeStyle=orthogonalEdgeStyle;rounded=0;orthogonalLoop=1;jettySize=auto;html=1;exitX=0.5;exitY=1;exitDx=0;exitDy=0;entryX=0.5;entryY=0;entryDx=0;entryDy=0;" edge="1" parent="1" source="ieKP5hc3uYDtcVBomjVJ-5" target="ieKP5hc3uYDtcVBomjVJ-28">
          <mxGeometry relative="1" as="geometry" />
        </mxCell>
        <mxCell id="ieKP5hc3uYDtcVBomjVJ-31" style="edgeStyle=orthogonalEdgeStyle;rounded=0;orthogonalLoop=1;jettySize=auto;html=1;exitX=0.5;exitY=1;exitDx=0;exitDy=0;entryX=0.5;entryY=0;entryDx=0;entryDy=0;" edge="1" parent="1" source="ieKP5hc3uYDtcVBomjVJ-5" target="ieKP5hc3uYDtcVBomjVJ-30">
          <mxGeometry relative="1" as="geometry" />
        </mxCell>
        <mxCell id="ieKP5hc3uYDtcVBomjVJ-33" style="edgeStyle=orthogonalEdgeStyle;rounded=0;orthogonalLoop=1;jettySize=auto;html=1;exitX=0.5;exitY=1;exitDx=0;exitDy=0;entryX=0.5;entryY=0;entryDx=0;entryDy=0;" edge="1" parent="1" source="ieKP5hc3uYDtcVBomjVJ-5" target="ieKP5hc3uYDtcVBomjVJ-32">
          <mxGeometry relative="1" as="geometry" />
        </mxCell>
        <mxCell id="ieKP5hc3uYDtcVBomjVJ-5" value="VehicleBase" style="rounded=1;whiteSpace=wrap;html=1;" vertex="1" parent="1">
          <mxGeometry x="280" y="120" width="80" height="40" as="geometry" />
        </mxCell>
        <mxCell id="ieKP5hc3uYDtcVBomjVJ-23" style="edgeStyle=orthogonalEdgeStyle;rounded=0;orthogonalLoop=1;jettySize=auto;html=1;exitX=0.5;exitY=1;exitDx=0;exitDy=0;entryX=0.5;entryY=0;entryDx=0;entryDy=0;" edge="1" parent="1" source="ieKP5hc3uYDtcVBomjVJ-6" target="ieKP5hc3uYDtcVBomjVJ-20">
          <mxGeometry relative="1" as="geometry" />
        </mxCell>
        <mxCell id="ieKP5hc3uYDtcVBomjVJ-24" style="edgeStyle=orthogonalEdgeStyle;rounded=0;orthogonalLoop=1;jettySize=auto;html=1;exitX=0.5;exitY=1;exitDx=0;exitDy=0;entryX=0.5;entryY=0;entryDx=0;entryDy=0;" edge="1" parent="1" source="ieKP5hc3uYDtcVBomjVJ-6" target="ieKP5hc3uYDtcVBomjVJ-11">
          <mxGeometry relative="1" as="geometry" />
        </mxCell>
        <mxCell id="ieKP5hc3uYDtcVBomjVJ-25" style="edgeStyle=orthogonalEdgeStyle;rounded=0;orthogonalLoop=1;jettySize=auto;html=1;exitX=0.5;exitY=1;exitDx=0;exitDy=0;entryX=0.5;entryY=0;entryDx=0;entryDy=0;" edge="1" parent="1" source="ieKP5hc3uYDtcVBomjVJ-6" target="ieKP5hc3uYDtcVBomjVJ-19">
          <mxGeometry relative="1" as="geometry" />
        </mxCell>
        <mxCell id="ieKP5hc3uYDtcVBomjVJ-39" style="edgeStyle=orthogonalEdgeStyle;rounded=0;orthogonalLoop=1;jettySize=auto;html=1;exitX=0.5;exitY=1;exitDx=0;exitDy=0;entryX=0.5;entryY=0;entryDx=0;entryDy=0;" edge="1" parent="1" source="ieKP5hc3uYDtcVBomjVJ-6" target="ieKP5hc3uYDtcVBomjVJ-36">
          <mxGeometry relative="1" as="geometry" />
        </mxCell>
        <mxCell id="ieKP5hc3uYDtcVBomjVJ-6" value="Wheeled Vehicle" style="rounded=1;whiteSpace=wrap;html=1;" vertex="1" parent="1">
          <mxGeometry x="160" y="280" width="80" height="40" as="geometry" />
        </mxCell>
        <mxCell id="ieKP5hc3uYDtcVBomjVJ-22" style="edgeStyle=orthogonalEdgeStyle;rounded=0;orthogonalLoop=1;jettySize=auto;html=1;exitX=0.5;exitY=1;exitDx=0;exitDy=0;entryX=0.5;entryY=0;entryDx=0;entryDy=0;" edge="1" parent="1" source="ieKP5hc3uYDtcVBomjVJ-7" target="ieKP5hc3uYDtcVBomjVJ-21">
          <mxGeometry relative="1" as="geometry" />
        </mxCell>
        <mxCell id="ieKP5hc3uYDtcVBomjVJ-27" style="edgeStyle=orthogonalEdgeStyle;rounded=0;orthogonalLoop=1;jettySize=auto;html=1;exitX=0.5;exitY=1;exitDx=0;exitDy=0;entryX=0.5;entryY=0;entryDx=0;entryDy=0;" edge="1" parent="1" source="ieKP5hc3uYDtcVBomjVJ-7" target="ieKP5hc3uYDtcVBomjVJ-26">
          <mxGeometry relative="1" as="geometry" />
        </mxCell>
        <mxCell id="ieKP5hc3uYDtcVBomjVJ-7" value="Tracked Vehicle" style="rounded=1;whiteSpace=wrap;html=1;" vertex="1" parent="1">
          <mxGeometry x="410" y="280" width="80" height="40" as="geometry" />
        </mxCell>
        <mxCell id="ieKP5hc3uYDtcVBomjVJ-11" value="Truck" style="rounded=1;whiteSpace=wrap;html=1;fillColor=#f8cecc;strokeColor=#b85450;" vertex="1" parent="1">
          <mxGeometry x="260" y="360" width="80" height="40" as="geometry" />
        </mxCell>
        <mxCell id="ieKP5hc3uYDtcVBomjVJ-19" value="APC" style="rounded=1;whiteSpace=wrap;html=1;fillColor=#f8cecc;strokeColor=#b85450;" vertex="1" parent="1">
          <mxGeometry x="160" y="360" width="80" height="40" as="geometry" />
        </mxCell>
        <mxCell id="ieKP5hc3uYDtcVBomjVJ-20" value="Big Car" style="rounded=1;whiteSpace=wrap;html=1;fillColor=#f8cecc;strokeColor=#b85450;" vertex="1" parent="1">
          <mxGeometry x="-80" y="360" width="80" height="40" as="geometry" />
        </mxCell>
        <mxCell id="ieKP5hc3uYDtcVBomjVJ-21" value="APC" style="rounded=1;whiteSpace=wrap;html=1;fillColor=#f8cecc;strokeColor=#b85450;" vertex="1" parent="1">
          <mxGeometry x="460" y="360" width="80" height="40" as="geometry" />
        </mxCell>
        <mxCell id="ieKP5hc3uYDtcVBomjVJ-26" value="Tank" style="rounded=1;whiteSpace=wrap;html=1;fillColor=#f8cecc;strokeColor=#b85450;" vertex="1" parent="1">
          <mxGeometry x="360" y="360" width="80" height="40" as="geometry" />
        </mxCell>
        <mxCell id="ieKP5hc3uYDtcVBomjVJ-28" value="Ground Vehicles" style="rounded=1;whiteSpace=wrap;html=1;" vertex="1" parent="1">
          <mxGeometry x="280" y="200" width="80" height="40" as="geometry" />
        </mxCell>
        <mxCell id="ieKP5hc3uYDtcVBomjVJ-30" value="Planes" style="rounded=1;whiteSpace=wrap;html=1;" vertex="1" parent="1">
          <mxGeometry x="380" y="200" width="80" height="40" as="geometry" />
        </mxCell>
        <mxCell id="ieKP5hc3uYDtcVBomjVJ-32" value="Helis" style="rounded=1;whiteSpace=wrap;html=1;" vertex="1" parent="1">
          <mxGeometry x="480" y="200" width="80" height="40" as="geometry" />
        </mxCell>
        <mxCell id="ieKP5hc3uYDtcVBomjVJ-34" value="Text" style="text;html=1;align=center;verticalAlign=middle;whiteSpace=wrap;rounded=0;" vertex="1" parent="1">
          <mxGeometry x="40" y="40" width="80" height="120" as="geometry" />
        </mxCell>
        <mxCell id="ieKP5hc3uYDtcVBomjVJ-36" value="Armed APC Base" style="rounded=1;whiteSpace=wrap;html=1;fillColor=#f8cecc;strokeColor=#b85450;" vertex="1" parent="1">
          <mxGeometry x="40" y="360" width="80" height="40" as="geometry" />
        </mxCell>
      </root>
    </mxGraphModel>
  </diagram>
</mxfile>
